<svg xmlns="http://www.w3.org/2000/svg" width="26" height="16" viewBox="0 0 26 16">
    <g fill="#FFF" fill-rule="evenodd">
        <path d="M14.262 1.982l-2.085 2.354a5.27 5.27 0 0 0-2.6-1.154C7.146 2.82 4.716 4.42 4.1 6.806a4.844 4.844 0 0 0 3.017 5.744c1.45.537 2.891.477 4.27-.242.991-.518 1.546-1.39 1.837-2.505H8.96V6.716h7.557c.013.018.035.035.035.052.058 1.596.064 3.188-.553 4.7-.974 2.393-2.75 3.854-5.27 4.34-3.154.61-5.902-.216-8.025-2.663C-1.153 8.695 1.068 1.773 6.801.307c2.735-.7 5.207-.101 7.461 1.675M20.791 6.701V4.353h1.88v2.322h2.351v1.92h-2.318v2.334h-1.907V8.61H18.46V6.701z"/>
    </g>
</svg>
