<svg xmlns="http://www.w3.org/2000/svg" width="21" height="20" viewBox="0 0 21 20">
    <g fill="none" fill-rule="evenodd">
        <path fill="#FFF" d="M1.965 9.976c0 1.386-.02 2.77.005 4.156.042 2.166 1.745 3.93 3.892 3.96 2.813.043 5.628.044 8.441 0 2.09-.032 3.84-1.753 3.88-3.838.054-2.812.055-5.628.001-8.441-.044-2.24-1.81-3.921-4.049-3.938a511.38 511.38 0 0 0-8.122 0c-2.317.02-4.043 1.804-4.049 4.136-.003 1.32 0 2.643.001 3.965zm8.057 9.836c-1.598 0-3.207.133-4.788-.028C2.348 19.49.227 17.043.192 14.117A371.304 371.304 0 0 1 .19 5.74C.22 2.702 2.804.146 5.92.099c2.77-.041 5.541-.04 8.312 0 3.2.045 5.69 2.57 5.741 5.824.044 2.728.038 5.457.002 8.186-.042 3.225-2.622 5.747-5.86 5.777-1.364.013-2.728.002-4.092.002v-.076z"/>
        <path stroke="#050B3E" stroke-width=".128" d="M1.965 9.976c0 1.386-.02 2.77.005 4.156.042 2.166 1.745 3.93 3.892 3.96 2.813.043 5.628.044 8.441 0 2.09-.032 3.84-1.753 3.88-3.838.054-2.812.055-5.628.001-8.441-.044-2.24-1.81-3.921-4.049-3.938a511.38 511.38 0 0 0-8.122 0c-2.317.02-4.043 1.804-4.049 4.136-.003 1.32 0 2.643.001 3.965zm8.057 9.836c-1.598 0-3.207.133-4.788-.028C2.348 19.49.227 17.043.192 14.117A371.304 371.304 0 0 1 .19 5.74C.22 2.702 2.804.146 5.92.099c2.77-.041 5.541-.04 8.312 0 3.2.045 5.69 2.57 5.741 5.824.044 2.728.038 5.457.002 8.186-.042 3.225-2.622 5.747-5.86 5.777-1.364.013-2.728.002-4.092.002v-.076z"/>
        <path fill="#FFF" d="M13.706 10.047c.014-2.01-1.646-3.692-3.633-3.683-1.948.009-3.607 1.645-3.617 3.566-.011 2.014 1.64 3.69 3.629 3.684 1.945-.006 3.608-1.645 3.62-3.567m1.753-.201c.169 2.84-2.177 5.363-5.137 5.52-2.965.16-5.46-2.135-5.618-5.17-.154-2.927 2.138-5.42 5.136-5.585 2.988-.165 5.434 2.114 5.619 5.235"/>
        <path stroke="#050B3E" stroke-width=".128" d="M13.706 10.047c.014-2.01-1.646-3.692-3.633-3.683-1.948.009-3.607 1.645-3.617 3.566-.011 2.014 1.64 3.69 3.629 3.684 1.945-.006 3.608-1.645 3.62-3.567zm1.752-.201c.169 2.84-2.177 5.363-5.137 5.52-2.965.16-5.46-2.135-5.618-5.17-.154-2.927 2.138-5.42 5.136-5.585 2.988-.165 5.434 2.114 5.619 5.235z"/>
        <path fill="#FFF" d="M15.36 3.88c.51.028.81.272.816.784.005.509-.28.786-.786.789-.478.003-.75-.267-.772-.74-.026-.51.259-.771.743-.832"/>
        <path stroke="#050B3E" stroke-width=".128" d="M15.36 3.88c.51.028.81.272.816.784.005.509-.28.786-.786.789-.478.003-.75-.267-.772-.74-.026-.51.259-.771.743-.832z"/>
    </g>
</svg>
