<svg xmlns="http://www.w3.org/2000/svg" width="21" height="20" viewBox="0 0 21 20">
    <g fill="#FFF" fill-rule="evenodd">
        <path d="M.291 19.701h4.285V6.816H.291zM2.433 5.055h-.028C.968 5.055.04 4.065.04 2.828.04 1.565.997.6 2.461.6c1.466 0 2.368.964 2.395 2.227 0 1.237-.929 2.227-2.423 2.227M20.022 19.701h-4.284v-6.894c0-1.732-.619-2.915-2.171-2.915-1.181 0-1.888.8-2.197 1.57-.114.274-.142.655-.142 1.043v7.196H6.946s.055-11.678 0-12.885h4.282V8.64c.571-.88 1.588-2.127 3.862-2.127 2.817 0 4.932 1.84 4.932 5.798v7.39z"/>
    </g>
</svg>
