<svg xmlns="http://www.w3.org/2000/svg" width="225" height="58" viewBox="0 0 225 58">
    <g fill="#FFF" fill-rule="evenodd">
        <path d="M40 40c-1.1 0-2-.88-2-1.958V15.958c0-1.076.9-1.958 2-1.958s2 .882 2 1.958v22.084C42 39.119 41.1 40 40 40M182 38.041c0 1.077-.898 1.959-1.995 1.959h-.011c-1.096 0-1.994-.882-1.994-1.959V15.959c0-1.077.898-1.959 1.994-1.959h.01c1.098 0 1.996.882 1.996 1.959M24.045 36.113H6.489c-2.206-.232-2.516-2.04-2.578-3.034V15.944a1.955 1.955 0 0 0-3.91 0V37.72c-.002.018-.07 2.064 1.91 2.264.07.01.14.016.21.016h21.924A1.955 1.955 0 0 0 26 38.056c0-1.068-.88-1.943-1.955-1.943M93.76 14.271a1.94 1.94 0 0 0-1.936 1.935v21.81a1.94 1.94 0 0 0 1.935 1.935 1.94 1.94 0 0 0 1.935-1.935v-21.81a1.94 1.94 0 0 0-1.935-1.935M115.694 14.271a1.94 1.94 0 0 0-1.935 1.935v6.433c-.038.756-.351 2.538-2.493 2.538h-9.26a1.941 1.941 0 0 0-1.935 1.935 1.94 1.94 0 0 0 1.935 1.933h9.528c1.9.143 2.189 1.806 2.225 2.53v6.44a1.94 1.94 0 0 0 1.935 1.936 1.94 1.94 0 0 0 1.935-1.935v-21.81a1.94 1.94 0 0 0-1.935-1.935M77.988 24.92a2.019 2.019 0 0 0-2.012 2.015v7.234c-.107.806-.577 1.955-2.387 1.918v.001h-6.722c-1.351.027-7.308-.241-8.76-6.89 0 0-1.566-6.053 3.548-9.663a.52.52 0 0 0 .061-.048c.233-.196 1.98-1.57 5.432-1.57H77a1.96 1.96 0 0 0 1.952-1.957v-.004A1.96 1.96 0 0 0 77 14H66.682c-1.762.01-6.2.433-9.532 4.121-1.142 1.263-1.958 2.783-2.43 4.42-.888 3.077-1.755 9.023 2.648 13.832l.028.03c.19.199 3.586 3.657 9.059 3.596H78.447C79.3 40 80 39.3 80 38.443V26.935c0-1.11-.906-2.015-2.012-2.015M.039 53.903H.55V46.22H.04zM3 53.901h.513V48.64h-.512v5.261zm-.154-6.954c0-.222.184-.412.41-.412a.415.415 0 0 1 0 .832.416.416 0 0 1-.41-.42zM10.507 51.272c0-1.252-.952-2.243-2.17-2.243-1.219 0-2.172.991-2.172 2.243 0 1.25.953 2.243 2.172 2.243 1.218 0 2.17-.992 2.17-2.243zm.512-2.632v5.01c0 1.58-1.136 2.474-2.55 2.474-1.198 0-2.047-.495-2.417-1.264l.451-.263c.266.558.84 1.022 1.966 1.022 1.28 0 2.038-.768 2.038-1.97v-.966a2.418 2.418 0 0 1-2.202 1.336c-1.464 0-2.651-1.19-2.651-2.747 0-1.559 1.187-2.748 2.651-2.748.994 0 1.783.527 2.202 1.337v-1.22h.512zM17.802 50.63v3.272h-.521V50.63c0-.97-.544-1.6-1.506-1.6-1.003 0-1.792.675-1.792 2.095v2.777h-.512v-7.366h.512v3.105c.388-.779 1.045-1.116 1.833-1.116 1.218 0 1.986.83 1.986 2.105M21.216 49.156v3.42c0 .927.481.948 1.526.854v.473c-1.342.21-2.048-.125-2.048-1.327v-3.42h-1.127v-.516h1.127v-1.314l.522-.16v1.474h1.526v.516h-1.526zM32.956 51.272c0-1.252-.942-2.243-2.162-2.243-1.218 0-2.17.991-2.17 2.243 0 1.25.952 2.243 2.17 2.243 1.22 0 2.162-.992 2.162-2.243m-4.855 0c0-1.559 1.199-2.748 2.693-2.748 1.486 0 2.684 1.19 2.684 2.748 0 1.557-1.198 2.747-2.684 2.747-1.494 0-2.693-1.19-2.693-2.747M36.267 48.357v.284h1.526v.516h-1.526v4.745h-.521v-4.745h-.882v-.516h.882v-.284c0-1.296.706-2.042 2.047-1.936v.505c-1.044-.085-1.526.408-1.526 1.43M44.156 49.156v3.42c0 .927.482.948 1.526.854v.473c-1.342.21-2.047-.125-2.047-1.327v-3.42h-1.128v-.516h1.128v-1.314l.521-.16v1.474h1.526v.516h-1.526zM52.115 50.63v3.272h-.522V50.63c0-.97-.543-1.6-1.504-1.6-1.005 0-1.793.675-1.793 2.095v2.777h-.513v-7.366h.513v3.105c.389-.779 1.044-1.116 1.833-1.116 1.218 0 1.986.83 1.986 2.105M54.618 51.03h4.116c-.113-1.284-.994-2-1.997-2-1.167 0-2.017.832-2.12 2m4.649.263c0 .084-.01.168-.01.253h-4.638c.123 1.188 1.002 1.968 2.17 1.968.84 0 1.475-.401 1.772-.957l.45.273c-.419.715-1.218 1.188-2.231 1.188-1.578 0-2.695-1.157-2.695-2.745 0-1.548 1.086-2.748 2.653-2.748 1.556 0 2.529 1.326 2.529 2.768M65.836 48.357v.284h1.526v.516h-1.526v4.745h-.522v-4.745h-.882v-.516h.882v-.284c0-1.296.706-2.042 2.048-1.936v.505c-1.045-.085-1.526.408-1.526 1.43M73.221 48.64v5.262h-.512v-1c-.39.78-1.044 1.116-1.833 1.116-1.218 0-1.986-.83-1.986-2.104v-3.273h.521v3.273c0 .97.542 1.6 1.506 1.6 1.003 0 1.792-.675 1.792-2.095v-2.778h.512zM76.768 49.156v3.42c0 .927.481.948 1.526.854v.473c-1.342.21-2.049-.125-2.049-1.327v-3.42H75.12v-.516h1.126v-1.314l.523-.16v1.474h1.526v.516h-1.526zM84.594 48.64v5.262h-.513v-1c-.39.78-1.044 1.116-1.833 1.116-1.218 0-1.986-.83-1.986-2.104v-3.273h.523v3.273c0 .97.542 1.6 1.505 1.6 1.004 0 1.791-.675 1.791-2.095v-2.778h.513zM89.267 48.566v.506c-.881 0-1.71.558-1.71 1.906v2.924h-.513v-5.26h.513v1.03c.349-.83 1.013-1.106 1.71-1.106M91.05 51.03h4.117c-.113-1.284-.993-2-1.997-2-1.167 0-2.017.832-2.12 2m4.65.263c0 .084-.01.168-.01.253h-4.64c.124 1.188 1.004 1.968 2.172 1.968.84 0 1.474-.401 1.77-.957l.45.273c-.418.715-1.217 1.188-2.23 1.188-1.578 0-2.695-1.157-2.695-2.745 0-1.548 1.086-2.748 2.653-2.748 1.556 0 2.53 1.326 2.53 2.768M149.97 14h-19.94c-1.116 0-2.03.882-2.03 1.959s.914 1.958 2.03 1.958h3.595c.92.004 1.704.012 1.89.03.886.116 2.454.63 2.454 2.821v17.273c0 1.079.914 1.959 2.032 1.959v-.01.01c1.116 0 2.03-.88 2.03-1.959V20.768c0-2.19 1.567-2.705 2.454-2.822.186-.017.97-.025 1.89-.029h3.594c1.117 0 2.031-.881 2.031-1.958S151.086 14 149.97 14"/>
        <g>
            <path d="M197.35 1.633c-.067-.004-.135 0-.198-.013a26.943 26.943 0 0 0-3.791-.478 24.68 24.68 0 0 0-3.34.013c-2.747.209-5.408.786-7.969 1.773-1.693.654-3.336 1.404-4.866 2.366a30.916 30.916 0 0 0-5.746 4.63c-1.062 1.096-1.977 2.301-2.813 3.563-1.69 2.548-2.934 5.28-3.679 8.217a23.94 23.94 0 0 0-.633 3.686 25.54 25.54 0 0 0-.098 3.337c.045 1.192.193 2.374.392 3.55.332 1.964.897 3.866 1.643 5.718 1.237 3.07 3.043 5.799 5.34 8.234 2.66 2.82 5.798 5.019 9.388 6.622 1.71.763 3.503 1.298 5.336 1.71 1.108.25 2.228.432 3.36.544.622.062 1.249.103 1.874.128.649.027 1.299.041 1.947.03 1.51-.026 3.011-.16 4.498-.42 3.19-.556 6.212-1.572 9.02-3.13 4.697-2.606 8.356-6.185 10.86-10.823 1.258-2.329 2.092-4.801 2.578-7.38.117-.624.186-1.257.271-1.886.091-.662.16-1.327.268-1.986.129-.78.613-1.31 1.37-1.597.754-.289 1.924.003 2.38.945.196.403.272.82.204 1.268-.11.694-.184 1.39-.29 2.084-.653 4.254-2.093 8.229-4.524 11.857a30.56 30.56 0 0 1-3.994 4.793 30.52 30.52 0 0 1-7.142 5.23 32.41 32.41 0 0 1-8.061 2.974c-1.221.276-2.456.473-3.702.615-1.605.184-3.217.23-4.83.163-5.815-.242-11.202-1.808-16.096-4.864-2.852-1.781-5.378-3.913-7.505-6.469-2.883-3.462-4.865-7.352-5.947-11.66a27.09 27.09 0 0 1-.566-3.125c-.162-1.273-.258-2.549-.228-3.831.015-.723.058-1.447.12-2.167.086-1.02.237-2.036.444-3.042.876-4.28 2.699-8.152 5.468-11.611 1.735-2.17 3.76-4.06 6.012-5.73 1.31-.969 2.746-1.743 4.2-2.49 2.265-1.161 4.662-1.98 7.165-2.52.895-.191 1.81-.273 2.725-.358a22.88 22.88 0 0 1 3.172-.08c1.583.075 3.117.281 4.604.828.424.154.836.331 1.217.57.074.047.172.082.162.212"/>
            <path d="M197.02 1.594l.325.068s.01-.038.006-.068c-.007-.03-.08-.054-.08-.054l-.252.054zM196.624 1.118s.544.25.688.39M197.324 1.52s.035.064.027.113"/>
        </g>
        <path d="M182 38.041c0 1.077-.898 1.959-1.995 1.959h-.011c-1.096 0-1.994-.882-1.994-1.959V15.959c0-1.077.898-1.959 1.994-1.959h.01c1.098 0 1.996.882 1.996 1.959M211.97 14h-19.94c-1.117 0-2.03.881-2.03 1.958s.913 1.958 2.03 1.958h3.595c.92.004 1.703.013 1.89.03.887.116 2.454.63 2.454 2.821v17.275c0 1.077.914 1.958 2.03 1.958v-.01.01c1.117 0 2.032-.881 2.032-1.958V20.767c0-2.19 1.566-2.705 2.454-2.82.186-.018.97-.027 1.89-.03h3.594c1.117 0 2.031-.882 2.031-1.959S213.086 14 211.97 14"/>
    </g>
</svg>
