<svg id="Слой_1" data-name="Слой 1" xmlns="http://www.w3.org/2000/svg" viewBox="0 0 67.38 12.28"  height="13px" width="auto">
    <path fill="#FFF"  class="menu-cls-1" d="M1794.53,76.58V64.74a0.18,0.18,0,0,1,.18-0.18h1.71a0.18,0.18,0,0,1,.16.11l4.26,9.69a0.18,0.18,0,0,0,.33,0l4.18-9.69a0.18,0.18,0,0,1,.17-0.11h1.62a0.18,0.18,0,0,1,.18.18V76.58a0.18,0.18,0,0,1-.18.18h-1a0.18,0.18,0,0,1-.18-0.18v-9a0.18,0.18,0,0,0-.34-0.07l-3.94,9.1a0.18,0.18,0,0,1-.17.11h-1a0.18,0.18,0,0,1-.16-0.11l-4-9.11a0.18,0.18,0,0,0-.34.07v9a0.18,0.18,0,0,1-.18.18h-1A0.18,0.18,0,0,1,1794.53,76.58Z" transform="translate(-1794.53 -64.56)"></path>
    <path fill="#FFF" class="menu-cls-1" d="M1833.18,76.44V64.87a0.31,0.31,0,0,1,.31-0.31h1.11a0.31,0.31,0,0,1,.25.12l6.81,9a0.31,0.31,0,0,0,.56-0.19V64.87a0.31,0.31,0,0,1,.31-0.31h0.87a0.31,0.31,0,0,1,.31.31V76.44a0.31,0.31,0,0,1-.31.31h-1.11a0.31,0.31,0,0,1-.25-0.12l-6.81-9a0.31,0.31,0,0,0-.56.19v8.67a0.31,0.31,0,0,1-.31.31h-0.87A0.31,0.31,0,0,1,1833.18,76.44Z" transform="translate(-1794.53 -64.56)"></path>
    <path fill="#FFF"  class="menu-cls-1" d="M1851.77,72v-6.7a0.79,0.79,0,0,1,.79-0.79h0a0.79,0.79,0,0,1,.79.79V72q0,3.51,3.5,3.51t3.5-3.51v-6.7a0.79,0.79,0,0,1,.79-0.79h0a0.79,0.79,0,0,1,.79.79V72q0,4.79-5.07,4.79T1851.77,72Z" transform="translate(-1794.53 -64.56)"></path>
    <rect fill="#FFF"  class="menu-cls-1" x="20.93" width="10.78" height="1.46" rx="0.48" ry="0.48"></rect>
    <rect fill="#FFF"  class="menu-cls-1" x="20.81" y="5.31" width="10.9" height="1.46" rx="0.39" ry="0.39"></rect>
    <rect fill="#FFF"  class="menu-cls-1" x="20.81" y="10.8" width="10.9" height="1.46" rx="0.4" ry="0.4"></rect>
</svg>