<svg xmlns="http://www.w3.org/2000/svg" width="25" height="25" viewBox="0 0 25 25">
    <path fill="#FFF" fill-rule="evenodd" d="M24.562 23.589L18.579 17.2c-.01-.01-.02-.012-.031-.022l-.257-.275.169-.216c2.028-2.665 2.689-5.637 1.887-8.885-1.36-5.51-6.95-8.85-12.484-7.506C2.808 1.525-.577 6.43.082 11.575c.356 2.773 1.624 5.056 3.805 6.796 2.46 1.961 5.271 2.627 8.365 2.096a9.333 9.333 0 0 0 2.348-.743.779.779 0 0 0 .466-.855.76.76 0 0 0-.69-.652 1.153 1.153 0 0 0-.514.107 8.733 8.733 0 0 1-5.293.553C3.973 17.952.931 13.493 1.717 8.855 2.555 3.918 7.381.696 12.28 1.807c6.047 1.371 8.78 8.48 5.204 13.542-.255.36-.558.686-.844 1.025-.278.33-.294.763-.025 1.062.133.15.273.295.41.442l3.81 4.07c.048.05.094.106.148.15l.004.003 2.466 2.632c.703.75 1.81-.397 1.11-1.144"/>
</svg>
