<svg xmlns="http://www.w3.org/2000/svg" width="15" height="15" viewBox="0 0 15 15">
    <g fill="none" fill-rule="evenodd">
        <path fill="#0F0F49" d="M8.505 5.16c0 .588-.006 1.176.007 1.764.003.096.07.219.149.279.302.227.419.56.283.893-.134.33-.462.516-.847.442-.166-.031-.256.02-.36.12-.419.409-.845.812-1.268 1.217-.122.117-.278.181-.41.06-.066-.061-.063-.21-.054-.315.005-.057.087-.11.139-.159.404-.389.808-.779 1.219-1.163.106-.1.156-.188.124-.345-.062-.298.036-.564.314-.731.132-.079.166-.166.165-.305-.005-1.144-.002-2.29-.002-3.435 0-.062-.003-.125 0-.188.014-.164.076-.297.275-.294.2.004.264.135.265.301.002.62 0 1.24 0 1.859h.001z"/>
        <path stroke="#0F0F49" stroke-width=".956" d="M14 7.5A6.5 6.5 0 0 1 7.5 14 6.5 6.5 0 0 1 1 7.5 6.5 6.5 0 0 1 7.5 1 6.5 6.5 0 0 1 14 7.5z"/>
    </g>
</svg>
