<svg xmlns="http://www.w3.org/2000/svg" width="19" height="16" viewBox="0 0 19 16">
    <path fill="#FFF" fill-rule="evenodd" d="M18.844 2.162a7.478 7.478 0 0 1-.962 1.094 12.71 12.71 0 0 1-.69.578c-.073.058-.107.114-.104.208a10.688 10.688 0 0 1-.247 2.683 11.576 11.576 0 0 1-.763 2.31 11.594 11.594 0 0 1-1.539 2.51c-.32.397-.666.77-1.038 1.117a10.508 10.508 0 0 1-4.667 2.525 9.513 9.513 0 0 1-1.635.275c-.454.031-.909.065-1.364.061a10.82 10.82 0 0 1-2.903-.425A11.286 11.286 0 0 1 .75 14.21c-.225-.12-.443-.256-.663-.386a.232.232 0 0 1-.064-.055c2.107.206 4.008-.31 5.7-1.592-1.256-.096-2.276-.618-3.03-1.63a3.389 3.389 0 0 1-.552-1.092c.292.016.574.044.854.044s.558-.043.852-.122C2.604 9.064 1.698 8.36 1.142 7.227a3.695 3.695 0 0 1-.376-1.739 3.94 3.94 0 0 0 1.726.487C1.45 5.206.87 4.197.8 2.915c-.054-.977.296-1.796.533-2.134 2.1 2.478 4.762 3.842 8.02 4.071-.024-.153-.045-.284-.062-.415A3.814 3.814 0 0 1 9.43 2.83a3.833 3.833 0 0 1 1.123-1.768 3.846 3.846 0 0 1 2.143-.977 3.863 3.863 0 0 1 1.977.27 3.75 3.75 0 0 1 1.09.682c.072.065.14.137.215.197.03.024.081.042.116.035A7.658 7.658 0 0 0 18.4.394a.168.168 0 0 1 .082-.022c-.287.894-.834 1.59-1.619 2.106.37-.037.733-.104 1.087-.212.355-.109.705-.235 1.072-.359-.063.09-.118.174-.178.255"/>
</svg>
